<?xml version="1.0" encoding="UTF-8"?>
<svg version="1.1" xmlns="http://www.w3.org/2000/svg" width="1254" height="1254">
<path d="M0 0 C413.82 0 827.64 0 1254 0 C1254 413.82 1254 827.64 1254 1254 C840.18 1254 426.36 1254 0 1254 C0 840.18 0 426.36 0 0 Z " fill="#000000" transform="translate(0,0)"/>
<path d="M0 0 C208.14667262 0 208.14667262 0 255.6015625 47.43359375 C257.29113668 49.1199505 258.98078429 50.80623368 260.67050171 52.4924469 C264.19047178 56.00646145 267.7084018 59.52250382 271.22509766 63.03979492 C275.74177221 67.55657187 280.26533298 72.06638535 284.79061317 76.57453823 C288.27169705 80.04454508 291.74826858 83.51904517 295.2235527 86.9948597 C296.89099342 88.66111746 298.56006254 90.32574727 300.23076248 91.98873711 C302.55262886 94.30087387 304.86815472 96.61917761 307.18212891 98.93920898 C307.87707458 99.62853516 308.57202026 100.31786133 309.2880249 101.02807617 C309.91304901 101.65729477 310.53807312 102.28651337 311.18203735 102.93479919 C311.7294993 103.48171638 312.27696125 104.02863356 312.84101295 104.59212399 C314 106 314 106 314 108 C314.66 108 315.32 108 316 108 C317.27159119 109.29283142 317.27159119 109.29283142 318.81616211 111.18725586 C323.61427127 116.82385905 328.86422437 121.97612855 334.11288643 127.18805122 C335.97840889 129.0406526 337.8406515 130.89649759 339.70213318 132.75315857 C343.65276763 136.69244327 347.60733388 140.62776594 351.5625 144.5625 C356.15383416 149.13013875 360.74349013 153.69943827 365.32893181 158.27299309 C367.1536358 160.09126886 368.98135044 161.9064796 370.80921936 163.72157288 C376.09274415 168.98205916 381.21751883 174.27301482 386 180 C387.64418216 181.68885186 389.3126192 183.35430817 391 185 C392.22429952 186.21669371 393.44732301 187.43467208 394.66943359 188.65356445 C395.34718842 189.32809158 396.02494324 190.00261871 396.72323608 190.69758606 C399.79942653 193.76033271 402.87291951 196.82578039 405.94628906 199.89135742 C407.56094845 201.50098521 409.17650385 203.1097147 410.79296875 204.7175293 C413.14303498 207.05537556 415.48977652 209.39651664 417.8359375 211.73828125 C418.54970551 212.44688797 419.26347351 213.15549469 419.99887085 213.88557434 C423.98963788 217.87590072 427.78381156 221.97230076 431.46939087 226.24577332 C433.28367029 228.3251137 435.18717753 230.28588111 437.15625 232.21875 C437.86910156 232.92386719 438.58195312 233.62898437 439.31640625 234.35546875 C440.03699219 235.06316406 440.75757813 235.77085937 441.5 236.5 C446.26857774 241.18327224 450.84975966 245.91966352 455.20898438 250.98632812 C458.47191 254.65489554 461.99848712 258.06112599 465.5 261.5 C469.60221347 265.52882861 473.66176122 269.5391413 477.40625 273.90625 C481.67420279 278.86683055 486.34069956 283.41024136 491 288 C496.9055944 293.8174512 502.64781226 299.66674583 508 306 C508.47985352 306.56364258 508.95970703 307.12728516 509.45410156 307.70800781 C510.37785597 308.79443595 511.3004842 309.88182276 512.22192383 310.97021484 C517.49019312 317.18360083 522.91746151 323.21627638 528.48583984 329.16162109 C531.83849689 332.7417835 535.12264099 336.36484154 538.328125 340.078125 C540.35758073 342.41105074 542.427647 344.70511245 544.5 347 C547.17048344 349.95869751 549.82298058 352.92926472 552.4375 355.9375 C555.19784541 359.11221597 558.02792558 362.21537436 560.875 365.3125 C564.27533563 369.03274581 567.52664393 372.82450753 570.6875 376.75 C573.72455244 380.51295601 576.8605813 383.9796073 580.33203125 387.33984375 C582.70890257 389.70558218 584.87101215 392.23740001 587.05859375 394.77734375 C589.28804061 397.32976883 591.58001382 399.81887514 593.875 402.3125 C597.18336914 405.93523905 600.36012358 409.61692891 603.4375 413.4375 C607.57811967 418.56747127 611.9726732 423.404648 616.44921875 428.23828125 C620.6621597 432.79961242 624.71432894 437.49022292 628.7421875 442.21484375 C634.32537706 448.75953252 639.96677348 455.22174235 645.77734375 461.56640625 C648.20453103 464.22394171 650.61064978 466.88803435 652.90423584 469.66207886 C655.04787126 472.14025039 655.04787126 472.14025039 657.93780518 474.62356567 C664.132088 480.43912033 667.62061349 485.51931941 668.27671432 494.13955498 C668.42908231 499.47423757 668.32490888 504.78375969 668.171875 510.1171875 C668.14945248 512.42883875 668.13239034 514.7405476 668.12042236 517.05227661 C668.0749235 523.09374534 667.95733982 529.13167044 667.82397461 535.17175293 C667.70051451 541.35229567 667.64626308 547.53341946 667.5859375 553.71484375 C667.45780751 565.81144037 667.25340488 577.90542387 667 590 C655.67224391 590.09321082 644.344581 590.16402193 633.01651764 590.20724869 C627.75485054 590.22800889 622.49344832 590.25611189 617.23193359 590.30175781 C612.1420079 590.34563228 607.05233489 590.36922376 601.9622345 590.37950897 C600.03282196 590.38682645 598.10342121 590.40111259 596.17411804 590.42292023 C567.62590492 590.73239758 542.93436588 581.68788497 522.27197266 561.57373047 C516.58757594 555.92049666 511.2785163 550.12188622 506.3125 543.8203125 C502.9411324 539.7086108 499.30089349 535.86566849 495.66455078 531.98901367 C492.26021198 528.35942463 488.92403935 524.6892337 485.671875 520.921875 C483.64241927 518.58894926 481.572353 516.29488755 479.5 514 C476.23295665 510.37976277 473.00479224 506.73016435 469.8046875 503.05078125 C467.77041859 500.73911203 465.6977769 498.4646857 463.625 496.1875 C460.42347567 492.64839998 457.36853937 489.02896894 454.375 485.3125 C451.31461645 481.52952589 448.15704685 478.03758645 444.6640625 474.65625 C442.31125312 472.31448667 440.1752333 469.80542739 438.0078125 467.29296875 C435.58927388 464.53094118 433.11108624 461.82602288 430.625 459.125 C425.71183337 453.78383675 420.84719559 448.4011608 416 443 C415.236875 442.154375 414.47375 441.30875 413.6875 440.4375 C410.32519645 436.71170418 406.97258221 432.98165064 403.6875 429.1875 C400.01422761 424.96623359 396.20368875 420.87571019 392.39868164 416.77368164 C389.76270845 413.92686354 387.15556691 411.06662346 384.625 408.125 C380.63360719 403.50750636 376.43179795 399.08630875 372.25878906 394.63378906 C368.2065767 390.30582807 364.21387914 385.93141752 360.26171875 381.51171875 C355.56161015 376.29208174 350.77191965 371.15391197 346 366 C334.57097739 353.65608378 334.57097739 353.65608378 329.625 348.125 C325.80675488 343.86245 321.91137346 339.67679734 318 335.5 C312.59600267 329.72811985 307.26366995 323.90048446 302 318 C299.00685157 314.66044741 296.00498343 311.3289037 293 308 C292.19175781 307.09765625 291.38351562 306.1953125 290.55078125 305.265625 C283.20640094 297.14179626 275.5029044 289.40724905 267.72021484 281.7043457 C265.47241579 279.4772828 263.23745162 277.23745162 261 275 C260.34257813 274.35417969 259.68515625 273.70835937 259.0078125 273.04296875 C258.07582031 272.12451172 258.07582031 272.12451172 257.125 271.1875 C256.20074219 270.28064453 256.20074219 270.28064453 255.2578125 269.35546875 C253.41940236 267.4375426 251.69824139 265.48986 249.97412109 263.47192383 C245.59141358 258.45231481 240.88851151 253.78151222 236.15625 249.09375 C234.7380835 247.68137068 233.31991993 246.26898839 231.90192413 244.85643768 C229.43676868 242.40212499 226.96829491 239.95115467 224.5 237.5 C221.55014369 234.57062797 218.60092161 231.64063715 215.65563965 228.70666504 C213.82931571 226.88779387 212.00074639 225.07117348 210.16955566 223.25720215 C206.56004452 219.66192286 203.00341282 216.07467695 199.69580078 212.19799805 C194.47655113 206.12540704 188.69432703 200.57169375 183.0234375 194.92578125 C181.76724621 193.67145952 180.51127884 192.41691351 179.25552368 191.16215515 C175.96848337 187.87890809 172.67845304 184.59867363 169.38775635 181.3190918 C166.04314834 177.98472745 162.70137697 174.64752287 159.359375 171.31054688 C153.96203449 165.92196153 148.56301269 160.53506799 143.16163635 155.15052795 C140.88425891 152.88005946 138.60832667 150.60818091 136.33482361 148.33383179 C134.54612005 146.54588806 132.75371375 144.7622795 130.95385742 142.9855957 C127.99363252 140.06074659 125.03933836 137.12998923 122.0871582 134.19702148 C120.81352099 132.93353278 119.53810824 131.67183153 118.26098633 130.41186523 C116.41280752 128.5878147 114.57104904 126.75749477 112.73046875 124.92578125 C112.15556198 124.36119705 111.58065521 123.79661285 110.98832703 123.21492004 C109.62040069 121.84738775 108.30460347 120.42806752 107 119 C107 118.34 107 117.68 107 117 C106.34 117 105.68 117 105 117 C104.69344009 149.67162129 104.48509804 182.34203081 104.41194101 215.01496674 C104.40319892 218.88099211 104.3936282 222.74701502 104.38354492 226.61303711 C104.38155164 227.38262244 104.37955836 228.15220776 104.37750467 228.94511386 C104.34334835 241.37132499 104.24222287 253.7961205 104.11590228 266.22169755 C103.9875823 278.99222807 103.93226113 291.76160624 103.94328564 304.53278321 C103.94781902 312.40078434 103.89689538 320.26426723 103.77268257 328.13130631 C103.68321197 334.18644417 103.6958182 340.2372069 103.74455261 346.29298019 C103.7489115 348.7604408 103.72130385 351.22821918 103.65772057 353.69486427 C103.35795754 366.03058489 103.82514989 374.89152243 112.61235827 384.1568138 C115.85878956 387.24443675 119.22589431 390.14118675 122.68608797 392.9856323 C126.16668046 396.01564943 129.05177575 399.46503483 132 403 C133.37176169 404.44136767 134.75909729 405.86834245 136.171875 407.26953125 C136.90954102 408.00389404 137.64720703 408.73825684 138.40722656 409.49487305 C139.1803418 410.25968994 139.95345703 411.02450684 140.75 411.8125 C141.97541504 413.03223511 141.97541504 413.03223511 143.22558594 414.27661133 C145.81462671 416.85353297 148.40688737 419.42717625 151 422 C154.41962719 425.39287153 157.83582149 428.78914657 161.25 432.1875 C162.02311523 432.95231689 162.79623047 433.71713379 163.59277344 434.50512695 C167.76254158 438.65622313 171.75489104 442.89370066 175.58105469 447.36450195 C176.67121622 448.6210388 177.8237056 449.8237056 179 451 C181.09188827 462.33400186 183.78622751 479.91638329 177.02246094 489.92675781 C171.58138609 494.80503526 165.05855941 497.61455899 158.39111328 500.45898438 C152.89743109 502.95546544 147.97899395 506.26919558 142.9375 509.5625 C140.94601298 510.815165 138.95121557 512.06258275 136.953125 513.3046875 C135.97021484 513.91666992 134.98730469 514.52865234 133.97460938 515.15917969 C128.10198331 518.79342136 122.19211332 522.36637666 116.28613281 525.94604492 C109.6114457 529.99902385 102.9957657 534.13576557 96.40625 538.32543945 C89.707464 542.57567961 82.95126342 546.72913304 76.1875 550.875 C67.06945266 556.46684445 58.01126842 562.14159871 49.00146484 567.90600586 C41.75900794 572.53419984 34.46301966 577.07121964 27.14624023 581.58081055 C21.90859282 584.81050079 16.70047701 588.07486607 11.546875 591.4375 C7.77328189 593.7525878 3.87002335 595.84998703 0 598 C0 400.66 0 203.32 0 0 Z " fill="#5741FA" transform="translate(294,303)"/>
<path d="M0 0 C27.85955524 -0.25707981 55.71893246 -0.45099577 83.57943535 -0.56993389 C96.51592559 -0.62662964 109.45167842 -0.70391068 122.38769531 -0.82983398 C133.66414515 -0.93955011 144.94006092 -1.01045832 156.21702969 -1.03497344 C162.18721778 -1.04930201 168.15587814 -1.08291896 174.12557602 -1.16303062 C179.74848868 -1.23787492 185.36924936 -1.26069292 190.99261284 -1.24418449 C193.05260491 -1.24720294 195.11267126 -1.26898325 197.17223167 -1.31126022 C213.50876433 -1.63006476 213.50876433 -1.63006476 218.34177017 2.33067894 C220.89890554 5.09686872 222.94180386 7.85173468 225 11 C226.54583463 12.93013281 228.10640991 14.84863957 229.6875 16.75 C230.42097656 17.65878906 231.15445313 18.56757812 231.91015625 19.50390625 C234.24060689 22.28737907 236.72232964 24.81381447 239.328125 27.3359375 C241.72490834 29.72152091 243.90920973 32.27255926 246.1171875 34.83203125 C248.2157532 37.24842951 250.354397 39.62529024 252.5 42 C255.18983431 44.98062721 257.86310364 47.97245233 260.5 51 C265.34371681 56.55799763 270.28668079 62.02849298 275.2578125 67.47265625 C279.17858454 71.78277325 282.96802163 76.15036752 286.625 80.6875 C289.68418981 84.46899852 292.84027077 87.95994745 296.33203125 91.33984375 C298.70890257 93.70558218 300.87101215 96.23740001 303.05859375 98.77734375 C305.28804061 101.32976883 307.58001382 103.81887514 309.875 106.3125 C313.18336914 109.93523905 316.36012358 113.61692891 319.4375 117.4375 C323.57811967 122.56747127 327.9726732 127.404648 332.44921875 132.23828125 C336.6621597 136.79961242 340.71432894 141.49022292 344.7421875 146.21484375 C350.32537706 152.75953252 355.96677348 159.22174235 361.77734375 165.56640625 C364.20453103 168.22394171 366.61064978 170.88803435 368.90423584 173.66207886 C371.04787126 176.14025039 371.04787126 176.14025039 373.93780518 178.62356567 C380.132088 184.43912033 383.62061349 189.51931941 384.27671432 198.13955498 C384.42908231 203.47423757 384.32490888 208.78375969 384.171875 214.1171875 C384.14945248 216.42883875 384.13239034 218.7405476 384.12042236 221.05227661 C384.0749235 227.09374534 383.95733982 233.13167044 383.82397461 239.17175293 C383.70051451 245.35229567 383.64626308 251.53341946 383.5859375 257.71484375 C383.45780751 269.81144037 383.25340488 281.90542387 383 294 C371.67224391 294.09321082 360.344581 294.16402193 349.01651764 294.20724869 C343.75485054 294.22800889 338.49344832 294.25611189 333.23193359 294.30175781 C328.1420079 294.34563228 323.05233489 294.36922376 317.9622345 294.37950897 C316.03282196 294.38682645 314.10342121 294.40111259 312.17411804 294.42292023 C283.62590492 294.73239758 258.93436588 285.68788497 238.27197266 265.57373047 C232.58757594 259.92049666 227.2785163 254.12188622 222.3125 247.8203125 C218.9411324 243.7086108 215.30089349 239.86566849 211.66455078 235.98901367 C208.26021198 232.35942463 204.92403935 228.6892337 201.671875 224.921875 C199.64241927 222.58894926 197.572353 220.29488755 195.5 218 C192.23295665 214.37976277 189.00479224 210.73016435 185.8046875 207.05078125 C183.77041859 204.73911203 181.6977769 202.4646857 179.625 200.1875 C176.42347567 196.64839998 173.36853937 193.02896894 170.375 189.3125 C167.31461645 185.52952589 164.15704685 182.03758645 160.6640625 178.65625 C158.31125312 176.31448667 156.1752333 173.80542739 154.0078125 171.29296875 C151.58927388 168.53094118 149.11108624 165.82602288 146.625 163.125 C141.71183337 157.78383675 136.84719559 152.4011608 132 147 C131.236875 146.154375 130.47375 145.30875 129.6875 144.4375 C126.32519645 140.71170418 122.97258221 136.98165064 119.6875 133.1875 C116.01422761 128.96623359 112.20368875 124.87571019 108.39868164 120.77368164 C105.76270845 117.92686354 103.15556691 115.06662346 100.625 112.125 C96.63360719 107.50750636 92.43179795 103.08630875 88.25878906 98.63378906 C84.2065767 94.30582807 80.21387914 89.93141752 76.26171875 85.51171875 C71.56161015 80.29208174 66.77191965 75.15391197 62 70 C50.57097739 57.65608378 50.57097739 57.65608378 45.625 52.125 C41.80675488 47.86245 37.91137346 43.67679734 34 39.5 C28.59597907 33.72809465 23.2648708 27.8994315 18 22 C16.50072547 20.33268069 15.00071339 18.66602434 13.5 17 C12.76910156 16.1853125 12.03820312 15.370625 11.28515625 14.53125 C9.67814535 12.75117639 8.05990593 10.98120703 6.43359375 9.21875 C5.60988281 8.3215625 4.78617188 7.424375 3.9375 6.5 C3.18339844 5.6853125 2.42929687 4.870625 1.65234375 4.03125 C0 2 0 2 0 0 Z " fill="#FDFCFD" transform="translate(578,599)"/>
<path d="M0 0 C0 140.91 0 281.82 0 427 C-9.09144183 417.90855817 -17.88503393 408.59958188 -25.91796875 398.5546875 C-28.78896611 395.03192526 -31.83434745 391.68221781 -34.890625 388.3203125 C-40.34850132 382.31664854 -45.583193 376.12954782 -50.80761719 369.9230957 C-53.68636807 366.51578566 -56.62086367 363.17324758 -59.625 359.875 C-63.49867246 355.61533882 -67.12953094 351.19405203 -70.75 346.71875 C-72.93501569 344.07852271 -75.19171391 341.5327028 -77.5 339 C-80.52282421 335.68010514 -83.42512161 332.30235888 -86.25 328.8125 C-90.41084769 323.67305572 -94.71734489 318.67673848 -99.05932617 313.69091797 C-103.45220409 308.64329236 -107.80754088 303.56926047 -112.06063652 298.40299702 C-113.96748239 296.13383896 -115.94742535 294.04875839 -118.09807014 292.01047802 C-126.15121893 284.10168509 -128.54390736 277.77239049 -128.69299316 266.56112671 C-128.67923625 264.72148675 -128.66417889 262.88185614 -128.64794922 261.04223633 C-128.6740868 259.06782655 -128.70520401 257.09347746 -128.74087524 255.11921692 C-128.82068243 249.79646717 -128.8247537 244.47628612 -128.80949545 239.15305543 C-128.80304427 234.6969901 -128.83245752 230.24143335 -128.86112797 225.78547782 C-128.927504 215.27138716 -128.93043009 204.75858311 -128.89404297 194.24438477 C-128.85775107 183.41797251 -128.93182461 172.59622842 -129.05946338 161.77061254 C-129.16528977 152.45018848 -129.20115103 143.13124813 -129.18163693 133.81024569 C-129.17078384 128.25376692 -129.18630673 122.70062441 -129.26992416 117.14469337 C-129.34561547 111.92106033 -129.33358697 106.70469495 -129.25545883 101.48116875 C-129.24131108 99.57164633 -129.25751705 97.66160637 -129.30719757 95.75267792 C-129.59087242 84.00072121 -129.59087242 84.00072121 -127 79 C-122.55660892 74.41045928 -116.88204707 71.68908617 -111.14901185 69.03649557 C-108.18708457 67.60792062 -105.56257551 65.87786815 -102.84375 64.03125 C-101.9563916 63.44633789 -101.0690332 62.86142578 -100.15478516 62.25878906 C-99.27870605 61.67838867 -98.40262695 61.09798828 -97.5 60.5 C-89.88723936 55.49431434 -82.21375859 50.62834401 -74.41699219 45.9152832 C-68.76278679 42.48962688 -63.20258833 38.93630768 -57.66333008 35.32836914 C-49.12097122 29.76592561 -40.51013204 24.31172758 -31.90527344 18.84667969 C-28.89624534 16.9340504 -25.88926582 15.01823624 -22.8828125 13.1015625 C-21.88725342 12.46710205 -20.89169434 11.8326416 -19.8659668 11.17895508 C-17.95828911 9.96309881 -16.05088585 8.74681182 -14.14379883 7.5300293 C-13.28036865 6.98000244 -12.41693848 6.42997559 -11.52734375 5.86328125 C-10.77187256 5.38157471 -10.01640137 4.89986816 -9.23803711 4.40356445 C-8.49948486 3.94038818 -7.76093262 3.47721191 -7 3 C-6.12287354 2.44594482 -5.24574707 1.89188965 -4.34204102 1.32104492 C-2 0 -2 0 0 0 Z " fill="#FCFCFC" transform="translate(961,306)"/>
<path d="M0 0 C3.45201639 1.47721422 5.64961936 3.43794001 8.25 6.125 C8.95640625 6.84945313 9.6628125 7.57390625 10.390625 8.3203125 C11.18726563 9.15175781 11.18726563 9.15175781 12 10 C11.01 10.495 11.01 10.495 10 11 C9.278125 10.2575 8.55625 9.515 7.8125 8.75 C5.09288953 5.98732731 5.09288953 5.98732731 2.1875 3.8125 C1.465625 3.214375 0.74375 2.61625 0 2 C0 1.34 0 0.68 0 0 Z " fill="#5C47F1" transform="translate(683,488)"/>
<path d="M0 0 C2.02054804 1.64169528 4.02043058 3.30911778 6 5 C6 5.33 6 5.66 6 6 C1.71 6 -2.58 6 -7 6 C-7 5.67 -7 5.34 -7 5 C-4.03 5 -1.06 5 2 5 C2 4.34 2 3.68 2 3 C1.34 3 0.68 3 0 3 C0 2.01 0 1.02 0 0 Z " fill="#482EDE" transform="translate(786,593)"/>
<path d="M0 0 C1.98 0.99 3.96 1.98 6 3 C4.71034824 4.37562854 3.37310707 5.70766393 2 7 C1.34 7 0.68 7 0 7 C0 4.69 0 2.38 0 0 Z " fill="#634CF2" transform="translate(295,893)"/>
<path d="M0 0 C2.64752004 2.57784846 4.94432065 4.91648098 7 8 C4 8 4 8 1.8125 6.25 C0 4 0 4 0 0 Z " fill="#181818" transform="translate(699,733)"/>
<path d="M0 0 C1.98 1.65 3.96 3.3 6 5 C5.34 5.66 4.68 6.32 4 7 C2.35 5.02 0.7 3.04 -1 1 C-0.67 0.67 -0.34 0.34 0 0 Z " fill="#121212" transform="translate(718,755)"/>
</svg>
